<?xml version="1.0" encoding="UTF-8"?>
<svg width="245px" height="230px" viewBox="0 0 245 230" version="1.1" xmlns="http://www.w3.org/2000/svg" xmlns:xlink="http://www.w3.org/1999/xlink">
    <!-- Generator: Sketch 43.2 (39069) - http://www.bohemiancoding.com/sketch -->
    <title>TripiLogo</title>
    <desc>Created with Sketch.</desc>
    <defs>
        <filter x="-4.8%" y="-4.5%" width="109.5%" height="110.9%" filterUnits="objectBoundingBox" id="filter-1">
            <feOffset dx="0" dy="2" in="SourceAlpha" result="shadowOffsetOuter1"></feOffset>
            <feGaussianBlur stdDeviation="2" in="shadowOffsetOuter1" result="shadowBlurOuter1"></feGaussianBlur>
            <feColorMatrix values="0 0 0 0 0   0 0 0 0 0   0 0 0 0 0  0 0 0 0.5 0" type="matrix" in="shadowBlurOuter1" result="shadowMatrixOuter1"></feColorMatrix>
            <feMerge>
                <feMergeNode in="shadowMatrixOuter1"></feMergeNode>
                <feMergeNode in="SourceGraphic"></feMergeNode>
            </feMerge>
        </filter>
    </defs>
    <g id="Page-1" stroke="none" stroke-width="1" fill="none" fill-rule="evenodd">
        <g id="TripiLogo" filter="url(#filter-1)" transform="translate(6.000000, 3.000000)" stroke="#FFFFFF" stroke-width="9">
            <path d="M149.257349,15 L180.737781,15" id="Shape"></path>
            <path d="M135.765735,31 L180.737781,31" id="Shape"></path>
            <path d="M135.765735,43 L185.234986,43" id="Shape"></path>
            <path d="M144.760144,116.20418 L144.760144,116.20418 C147.320807,104.20081 148.516648,91.9802202 148.327927,79.744149 L148.327927,66.1985057 C148.316618,63.5691797 149.437591,61.0450729 151.440665,59.1895145 C153.443739,57.3339562 156.162185,56.3013985 158.9893,56.3222873 L167.132238,56.3222873 C172.143641,56.3646599 176.195015,60.1325055 176.240576,64.793194 L176.240576,101.760699 C176.240576,105.253294 173.196214,108.084602 169.440803,108.084602 L167.384082,108.084602" id="Shape"></path>
            <path d="M144.760144,75 L171.743372,75" id="Shape"></path>
            <path d="M144.760144,92 L171.743372,92" id="Shape"></path>
            <path d="M194.229395,16.4005073 L217.482687,16.4005073 C222.876609,16.5075743 227.220983,20.4298063 227.339573,25.2996033 L227.339573,28.1715843 C227.331181,32.8689604 223.52369,36.8564815 218.378767,37.5560855 L209.417961,38.7695986 C202.979579,39.5226125 198.163435,44.4770905 198.172149,50.3384234 L198.172149,99.8497576 C198.204361,107.660574 203.961317,114.508145 212.285419,116.636689 L230.207031,120.196327" id="Shape"></path>
            <path d="M198.726599,56 L225.709827,56" id="Shape"></path>
            <path d="M198.726599,75 L225.709827,75" id="Shape"></path>
            <path d="M198.726599,95 L230.207031,95" id="Shape"></path>
            <path d="M185.234986,124.188474 L185.234986,124.188474 C185.234163,128.004219 182.371002,131.339387 178.265633,132.306759 L150.782717,136.247674 C144.609137,137.765538 140.311127,142.78911 140.26294,148.543329 L140.26294,151.499015 C140.285442,158.378958 146.419307,163.981375 154.070147,164.109943 L162.836628,164.109943" id="Shape"></path>
            <path d="M185.234986,128.180621 L217.905854,132.521787 C225.022218,133.632949 230.19675,138.936655 230.207031,145.130045 L230.207031,146.338021 C230.183919,150.032157 228.438548,153.565396 225.358739,156.152655 C222.278929,158.739914 218.119784,160.166889 213.805462,160.116506 L206.310121,160.116506" id="Shape"></path>
            <path d="M162.748963,147 L207.721008,147" id="Shape"></path>
            <path d="M184,148.141356 L184,216.007853" id="Shape"></path>
            <path d="M156.924354,176.086384 L156.924354,176.086384 C159.039324,187.923673 158.621369,200.221933 155.710388,211.807161 L153.754554,220" id="Shape"></path>
            <path d="M208.626523,176.086384 L208.626523,176.086384 C206.946294,188.463062 207.611915,201.218437 210.56051,213.147637 L212.218213,220" id="Shape"></path>
            <path d="M41.3244393,12.4083604 L28.1120009,17.1153801 C21.4845396,19.4130026 17.6654791,25.9705206 19.1616394,32.4835984 C19.546299,33.9829804 20.1945999,35.4108624 21.079574,36.7078469 L24.6597186,42.0183307 C26.4404917,44.9005613 27.3815855,48.1762589 27.3874478,51.512832 L27.3874478,116.20418" id="Shape"></path>
            <path d="M36.8272347,31 L117.776917,31" id="Shape"></path>
            <path d="M72.8048713,0.431919643 C72.8048713,0.431919643 88.7050297,46.6301042 117.776917,80.274858" id="Shape"></path>
            <path d="M108.782508,44.3455357 C99.048017,68.5047477 108.148339,112.212033 108.148339,112.212033" id="Shape"></path>
            <path d="M99.7880987,12.4083604 L81.7992804,13.2467112" id="Shape"></path>
            <path d="M78.7352509,48.3376826 L56.4963272,48.542859 C50.5936751,48.5654559 45.8215931,52.9865258 45.8216439,58.4323625 L45.8216439,93.6816715 C45.8461411,99.5127355 50.9766329,104.227783 57.2969285,104.227739 L86.296485,104.227739" id="Shape"></path>
            <path d="M46.2460197,68.2984172 L73.5003761,68.2984172 C78.0776648,68.3936615 81.7495338,71.8793326 81.7992804,76.1764898 L81.7992804,81.0892205 C81.7733512,85.0562127 78.3398318,88.2592264 74.1133633,88.2591518 L45.8216439,88.2591518" id="Shape"></path>
            <path d="M68,48.3376826 L68,64.3062703" id="Shape"></path>
            <path d="M68,88.2591518 L68,104.227739" id="Shape"></path>
            <path d="M0.849598163,96.2434456 C7.39424297,90.4013251 15.031277,85.6244306 23.4165854,82.1280027 L27.8328256,80.274858" id="Shape"></path>
            <path d="M0.849598163,72.2905641 C6.36080489,68.3316128 12.6582817,65.1833291 19.4662729,62.983571 L27.8328256,60.3141234" id="Shape"></path>
            <path d="M32.3300302,120.196327 L32.3300302,126.529631 L26.007698,129.371499 C21.9263581,131.051688 19.1895562,134.599538 18.8697341,138.624789 C18.549912,142.650041 20.6980096,146.511568 24.4722745,148.696196 L32.3300302,153.446174 L32.3300302,159.982469 L25.8722195,163.311514 C21.6677032,165.422505 19.0257494,169.381347 18.9327977,173.709907 C18.839846,178.038467 21.30987,182.086028 25.4206244,184.341332 L31.2913613,187.58918 L31.2913613,216.007853" id="Shape"></path>
            <path d="M32.3300302,128.180621 L39.7635108,132.421141 C43.379062,134.279311 45.672279,137.723006 45.8146199,141.508015 C45.9569608,145.293024 43.927847,148.872136 40.4603996,150.952215 L32.3300302,156.125649" id="Shape"></path>
            <path d="M33.3758967,160.117796 L39.0879368,163.183496 C43.0810525,165.024412 45.6802712,168.897824 45.8160619,173.209893 C45.9518527,177.521962 43.6012745,181.544185 39.731547,183.621491 L32.3300302,188.062825" id="Shape"></path>
            <path d="M10.518588,188.062825 L9.8440073,212.015706" id="Shape"></path>
            <path d="M50.3188484,192.054972 L51.3532055,216.007853" id="Shape"></path>
            <path d="M59.3132576,130.096851 L117.776917,128.180621" id="Shape"></path>
            <path d="M106.124081,128.180621 L104.819892,138.457611 C104.107107,143.912152 104.107107,149.422169 104.819892,154.87671 L106.079109,164.109943" id="Shape"></path>
            <path d="M69.6970148,132.172768 L69.3822105,134.157356 C68.0291491,143.428136 67.9535992,152.818813 69.1573503,162.106979 L69.9218751,168.10209" id="Shape"></path>
            <path d="M63.8104621,182 L104.285303,182" id="Shape"></path>
            <path d="M85,168.10209 L85,208.023559" id="Shape"></path>
            <path d="M88.1238923,128.180621 L86.9546192,135.710958 C86.0771069,142.819327 86.0771069,149.991952 86.9546192,157.100321 L87.8990321,164.109943" id="Shape"></path>
            <path d="M63.8104621,207 L113.279712,207" id="Shape"></path>
        </g>
    </g>
</svg>